<svg id="Icon" xmlns="http://www.w3.org/2000/svg" width="11" height="11" viewBox="0 0 11 11">
  <rect id="Icon_Frame_Background_" data-name="Icon [Frame Background]" width="11" height="11" fill="none"/>
  <path id="Vector" d="M8.938,4.469A4.469,4.469,0,1,1,4.469,0,4.474,4.474,0,0,1,8.938,4.469ZM3.012,3.625A1.586,1.586,0,0,0,4.469,5.156,1.587,1.587,0,0,0,5.925,3.626,1.427,1.427,0,0,0,4.469,2.063,1.42,1.42,0,0,0,3.012,3.625ZM4.469,8.25A3.769,3.769,0,0,0,7.176,7.107a2.64,2.64,0,0,0-.756-.718,3.648,3.648,0,0,0-1.951-.544,3.652,3.652,0,0,0-1.952.544,2.641,2.641,0,0,0-.755.718A3.77,3.77,0,0,0,4.469,8.25Z" transform="translate(1.031 1.031)" fill="#fff"/>
</svg>
