<svg id="Icon" xmlns="http://www.w3.org/2000/svg" width="11" height="11" viewBox="0 0 11 11">
  <rect id="Icon_Frame_Background_" data-name="Icon [Frame Background]" width="11" height="11" fill="none"/>
  <path id="Vector" d="M4.462,2.432A2.448,2.448,0,0,1,2.234,4.813,2.447,2.447,0,0,1,.007,2.431,2.274,2.274,0,0,1,.584.7,2.217,2.217,0,0,1,2.234,0,2.211,2.211,0,0,1,3.881.7,2.267,2.267,0,0,1,4.462,2.432Z" transform="translate(3.266 0.687)" fill="#fff"/>
  <path id="Vector-2" data-name="Vector" d="M8.25,4.125H.688a.666.666,0,0,1-.52-.239A.759.759,0,0,1,.013,3.26,3.678,3.678,0,0,1,1.65.816,5.125,5.125,0,0,1,4.469,0,5.127,5.127,0,0,1,7.288.816,3.678,3.678,0,0,1,8.924,3.26a.759.759,0,0,1-.154.625.666.666,0,0,1-.52.239Z" transform="translate(1.031 6.187)" fill="#fff"/>
</svg>
