<svg id="Icon" xmlns="http://www.w3.org/2000/svg" width="11" height="11" viewBox="0 0 11 11">
  <rect id="Icon_Frame_Background_" data-name="Icon [Frame Background]" width="11" height="11" fill="none"/>
  <path id="Vector" d="M6.273,0A2.61,2.61,0,0,1,8.938,2.556,2.614,2.614,0,0,1,6.273,5.117a2.42,2.42,0,0,1-1.025-.2,1.511,1.511,0,0,1-.374.223c-.1.021-.537-.148-.636-.127a.448.448,0,0,0-.245.236c-.043.191.236.529.208.66a.811.811,0,0,1-.518.464c-.221.026-.522-.312-.73-.107s.071.46.067.653a.452.452,0,0,1-.187.335.537.537,0,0,1-.408.2,4.015,4.015,0,0,0-.509-.064.313.313,0,0,0-.269.223c-.071.165.155.574-.049.773-.135.133-.2.219-.533.541-.112.107-.718-.453-.859-.6A.717.717,0,0,1,0,7.865a.433.433,0,0,1,.144-.322c.228-.219,2.673-3.092,3.6-4.179a2.426,2.426,0,0,1-.088-.8A2.574,2.574,0,0,1,6.273,0ZM7.361,1.576a.688.688,0,1,0,.2.486A.688.688,0,0,0,7.361,1.576Z" transform="translate(1.032 1.032)" fill="#fff"/>
</svg>
