<svg id="IONIcon_L_logo_apple" data-name="IONIcon/L/logo/apple" xmlns="http://www.w3.org/2000/svg" width="31" height="31" viewBox="0 0 31 31">
  <rect id="IONIcon_L_logo_apple_Frame_Background_" data-name="IONIcon/L/logo/apple [Frame Background]" width="31" height="31" fill="none"/>
  <path id="Vector" d="M17.259,0a6.886,6.886,0,0,1,5.194,2.754,5.97,5.97,0,0,0,.792,10.8,18.891,18.891,0,0,1-1.756,3.291c-1.141,1.738-2.746,3.905-4.744,3.926h-.036c-1.729,0-2.2-1.144-4.556-1.144h-.036c-2.39.013-2.906,1.15-4.642,1.15H7.439c-2-.021-3.521-1.977-4.662-3.722C-.412,12.183-.747,6.463,1.222,3.426A7.079,7.079,0,0,1,6.9.008c2.116,0,3.445,1.156,5.188,1.156,1.7,0,2.732-1.165,5.173-1.165Z" transform="translate(3.874 8.285)" fill="#fff"/>
  <path id="Vector-2" data-name="Vector" d="M4.237,4.4A5.445,5.445,0,0,1,.18,6.525H.064A5.512,5.512,0,0,1,1.415,2.232,6.4,6.4,0,0,1,5.557,0a5.906,5.906,0,0,1-1.32,4.4Z" transform="translate(15.044 1.939)" fill="#fff"/>
</svg>
