<svg xmlns="http://www.w3.org/2000/svg" width="20.602" height="21" viewBox="0 0 20.602 21">
  <path id="Vector" d="M20.6,10.755a10.484,10.484,0,0,1-2.727,7.261A9.748,9.748,0,0,1,10.776,21a10.959,10.959,0,0,1-7.9-3.206A10.541,10.541,0,0,1,0,10.5,10.657,10.657,0,0,1,2.989,3.08,10.705,10.705,0,0,1,10.563,0a10.389,10.389,0,0,1,6.921,2.666L14.546,5.589a5.962,5.962,0,0,0-3.888-1.515,6.53,6.53,0,0,0-4.57,1.787,6.781,6.781,0,0,0-1.922,4.63,6.566,6.566,0,0,0,1.959,4.635,6.839,6.839,0,0,0,4.6,1.833,5.843,5.843,0,0,0,5.716-4.393H10.6V8.432h9.771l.106.45a12.043,12.043,0,0,1,.121,1.873Z" transform="translate(0 0)" fill="#fff"/>
</svg>
