<svg xmlns="http://www.w3.org/2000/svg" width="21" height="18.667" viewBox="0 0 21 18.667">
  <g id="Group" transform="translate(-3.5 -1.167)">
    <path id="Vector" d="M21,8.167V17.5a1.17,1.17,0,0,1-1.167,1.167H18.667A1.17,1.17,0,0,1,17.5,17.5V16.333H3.5V17.5a1.17,1.17,0,0,1-1.167,1.167H1.167A1.17,1.17,0,0,1,0,17.5V8.167L2.427,1.178A1.754,1.754,0,0,1,4.083,0H16.917a1.743,1.743,0,0,1,1.657,1.178ZM3.232,5.962H17.757L16.5,2.333H4.492Zm15.435,2.2H2.333V14H18.667Z" transform="translate(3.5 1.167)" fill="#fff"/>
    <path id="Vector-2" data-name="Vector" d="M3.5,1.75A1.75,1.75,0,1,1,1.75,0,1.75,1.75,0,0,1,3.5,1.75Z" transform="translate(7 10.5)" fill="#fff"/>
    <path id="Vector-3" data-name="Vector" d="M3.5,1.75A1.75,1.75,0,1,1,1.75,0,1.75,1.75,0,0,1,3.5,1.75Z" transform="translate(17.5 10.5)" fill="#fff"/>
  </g>
</svg>
