<svg xmlns="http://www.w3.org/2000/svg" xmlns:xlink="http://www.w3.org/1999/xlink" width="70.426" height="54.18" viewBox="0 0 70.426 54.18">
  <defs>
    <filter id="Rectangle_3" x="0" y="0" width="70.426" height="54.18" filterUnits="userSpaceOnUse">
      <feOffset dy="3.5" input="SourceAlpha"/>
      <feGaussianBlur stdDeviation="5.5" result="blur"/>
      <feFlood flood-opacity="0.02"/>
      <feComposite operator="in" in2="blur"/>
      <feComposite in="SourceGraphic"/>
    </filter>
  </defs>
  <g id="Icon" transform="translate(-1093.021 -552.67)">
    <g transform="matrix(1, 0, 0, 1, 1093.02, 552.67)" filter="url(#Rectangle_3)">
      <rect id="Rectangle_3-2" data-name="Rectangle 3" width="37.425" height="21.18" rx="6" transform="translate(16.5 13)" fill="#0075ff"/>
    </g>
    <g id="IONIcon_W_wallet_default" data-name="IONIcon/W/wallet/default" transform="translate(1118.878 570.965)">
      <rect id="IONIcon_W_wallet_default_Frame_Background_" data-name="IONIcon/W/wallet/default [Frame Background]" width="18.713" height="10.59" fill="none"/>
      <path id="Vector" d="M1.859,1.158A5.049,5.049,0,0,0,0,1.493,3,3,0,0,1,1.5.953h.011L11.13.023A4.232,4.232,0,0,1,12.1.032a3.536,3.536,0,0,1,.883.223,2.142,2.142,0,0,1,.657.4,1.076,1.076,0,0,1,.326.515c-.136-.01-.272-.015-.409-.015H1.859Z" transform="translate(1.631 0.992)" fill="#fff"/>
      <path id="Vector-2" data-name="Vector" d="M14.035,0a3.444,3.444,0,0,1,1.653.388,1.149,1.149,0,0,1,.686.936V5.295a1.149,1.149,0,0,1-.686.936,3.444,3.444,0,0,1-1.653.388H2.339A3.444,3.444,0,0,1,.686,6.231,1.149,1.149,0,0,1,0,5.295V1.324A1.149,1.149,0,0,1,.686.388,3.444,3.444,0,0,1,2.339,0h11.7Zm-.909,3.777a.574.574,0,0,0,.343-.468.49.49,0,0,0-.2-.368,1.263,1.263,0,0,0-.525-.244,2.016,2.016,0,0,0-.676-.038,1.594,1.594,0,0,0-.6.181.67.67,0,0,0-.32.339.4.4,0,0,0,.067.382.938.938,0,0,0,.431.3,1.864,1.864,0,0,0,.65.112,1.72,1.72,0,0,0,.827-.194Z" transform="translate(1.151 2.647)" fill="#fff"/>
      <path id="Vector-3" data-name="Vector" d="M0,3.558V1.5C0,1.051.439.3,1.961.137,3.253,0,4.532,0,4.532,0s.841.331.146.331S4,.838,4.678.838s0,.486,0,.486L1.955,3.071Z" transform="translate(1.17 1.809)" fill="#fff"/>
    </g>
  </g>
</svg>
