<svg id="Icon" xmlns="http://www.w3.org/2000/svg" width="11" height="11" viewBox="0 0 11 11">
  <rect id="Icon_Frame_Background_" data-name="Icon [Frame Background]" width="11" height="11" fill="none"/>
  <path id="Vector" d="M8.839,4.945a2.508,2.508,0,0,1-1.8.68,3.852,3.852,0,0,1-.993-.137.342.342,0,0,0-.339.1L2.4,9.171A1.379,1.379,0,1,1,.458,7.223L4.034,3.957a.341.341,0,0,0,.1-.344A2.8,2.8,0,0,1,4.673.787,2.763,2.763,0,0,1,7.687.224h0a.344.344,0,0,1,.1.557L6.475,2.1a.344.344,0,0,0,0,.486l.571.571a.346.346,0,0,0,.486,0l1.32-1.321a.344.344,0,0,1,.549.086,2.806,2.806,0,0,1-.561,3.027ZM1.45,8.935a.687.687,0,1,0-.409-.083.687.687,0,0,0,.409.083Z" transform="translate(0.688 0.672)" fill="#fff"/>
</svg>
