<svg id="IONIcon_H_home_default" data-name="IONIcon/H/home/default" xmlns="http://www.w3.org/2000/svg" width="15" height="15" viewBox="0 0 15 15">
  <rect id="IONIcon_H_home_default_Frame_Background_" data-name="IONIcon/H/home/default [Frame Background]" width="15" height="15" fill="none"/>
  <path id="Vector" d="M11.182,5.217a.234.234,0,0,1,.072.17v4.836a.938.938,0,0,1-.937.938H7.5a.469.469,0,0,1-.469-.469V6.707A.234.234,0,0,0,6.8,6.473H4.456a.234.234,0,0,0-.234.234v3.984a.469.469,0,0,1-.469.469H.937A.938.938,0,0,1,0,10.223V5.387a.234.234,0,0,1,.072-.17L5.467.065a.234.234,0,0,1,.324,0Z" transform="translate(1.872 2.902)" fill="#0075ff"/>
  <path id="Vector-2" data-name="Vector" d="M13.936,6.888a.469.469,0,0,1-.662.013L7.194,1.092a.234.234,0,0,0-.324,0L.791,6.9A.469.469,0,0,1,.112,6.87a.478.478,0,0,1,.039-.655L6.383.253a.961.961,0,0,1,1.3,0l1.7,1.622V.938A.469.469,0,0,1,9.847.469h1.406a.469.469,0,0,1,.469.469V4.119l2.191,2.1a.48.48,0,0,1,.022.673Z" transform="translate(0.469 0.938)" fill="#0075ff"/>
</svg>
