<svg id="IONIcon_D_document_default" data-name="IONIcon/D/document/default" xmlns="http://www.w3.org/2000/svg" width="15" height="15" viewBox="0 0 15 15">
  <rect id="IONIcon_D_document_default_Frame_Background_" data-name="IONIcon/D/document/default [Frame Background]" width="15" height="15" fill="none"/>
  <path id="Vector" d="M10.278,5.659a.117.117,0,0,1,.034.083V11.25a1.875,1.875,0,0,1-1.875,1.875H1.875A1.875,1.875,0,0,1,0,11.25V1.875A1.875,1.875,0,0,1,1.875,0h2.7a.117.117,0,0,1,.117.117v4.1A1.406,1.406,0,0,0,6.094,5.625h4.1a.117.117,0,0,1,.083.034Z" transform="translate(2.344 0.938)" fill="#0075ff"/>
  <path id="Vector-2" data-name="Vector" d="M4.313,4.23a.059.059,0,0,1-.041.1H.469A.469.469,0,0,1,0,3.861V.058A.059.059,0,0,1,.1.017L4.313,4.23Z" transform="translate(7.969 1.296)" fill="#0075ff"/>
</svg>
