<svg id="IONIcon_R_rocket_sharp" data-name="IONIcon/R/rocket/sharp" xmlns="http://www.w3.org/2000/svg" width="15.069" height="10.59" viewBox="0 0 15.069 10.59">
  <rect id="IONIcon_R_rocket_sharp_Frame_Background_" data-name="IONIcon/R/rocket/sharp [Frame Background]" width="15.069" height="10.59" fill="none"/>
  <path id="Vector" d="M9.873,5.647a9.323,9.323,0,0,1-1.242.737A2.012,2.012,0,0,1,8.39,7.714c-.7,1.125-2.541,1.452-3.33,1.541a.4.4,0,0,1-.13-.006A.328.328,0,0,1,4.817,9.2a.211.211,0,0,1-.072-.076.145.145,0,0,1-.016-.091l.282-1.8q-.289,0-.577-.025a.7.7,0,0,1-.353-.118l-1-.7a.372.372,0,0,1-.168-.248,2.838,2.838,0,0,1-.035-.407l-2.57.2a.4.4,0,0,1-.129-.011.313.313,0,0,1-.108-.05A.2.2,0,0,1,.012,5.8.143.143,0,0,1,0,5.7,3.158,3.158,0,0,1,2.2,3.363,5.466,5.466,0,0,1,4.1,3.2a7.859,7.859,0,0,1,1.049-.871C7.3.809,11.288-.246,13.011.05a.162.162,0,0,1,.068.027.094.094,0,0,1,.037.049c.415,1.272-1.078,4.008-3.243,5.522Zm-1.7-1.59a1.969,1.969,0,0,0,1.081,0,1.55,1.55,0,0,0,.458-.215.954.954,0,0,0,.387-.508.723.723,0,0,0-.08-.574,1.168,1.168,0,0,0-.52-.446,1.925,1.925,0,0,0-1.57,0,1.168,1.168,0,0,0-.52.446.723.723,0,0,0-.08.574.954.954,0,0,0,.387.508,1.55,1.55,0,0,0,.458.215Z" transform="translate(0.942 0.666)" fill="#fff"/>
  <path id="Vector-2" data-name="Vector" d="M3.767,1.388a1.145,1.145,0,0,1-.5.727C2.571,2.6,0,2.647,0,2.647S.065.842.757.355A2.13,2.13,0,0,1,1.791,0a.176.176,0,0,1,.078.01.116.116,0,0,1,.055.04.067.067,0,0,1,.011.055A.086.086,0,0,1,1.9.155,1.2,1.2,0,0,0,1.621.67c-.126.5.492.922,1.192.838a1.7,1.7,0,0,0,.731-.2c.085-.062.235-.011.224.076Z" transform="translate(1.413 6.95)" fill="#fff"/>
</svg>
