<svg id="IONIcon_C_cart_default" data-name="IONIcon/C/cart/default" xmlns="http://www.w3.org/2000/svg" width="15.069" height="10.59" viewBox="0 0 15.069 10.59">
  <rect id="IONIcon_C_cart_default_Frame_Background_" data-name="IONIcon/C/cart/default [Frame Background]" width="15.069" height="10.59" fill="none"/>
  <path id="Vector" d="M1.884.662c0,.366-.422.662-.942.662S0,1.027,0,.662.422,0,.942,0,1.884.3,1.884.662Z" transform="translate(4.238 7.942)" fill="#fff"/>
  <path id="Vector-2" data-name="Vector" d="M1.884.662c0,.366-.422.662-.942.662S0,1.027,0,.662.422,0,.942,0,1.884.3,1.884.662Z" transform="translate(10.831 7.942)" fill="#fff"/>
  <path id="Vector-3" data-name="Vector" d="M12.5,1.174a.465.465,0,0,1,.14.194.354.354,0,0,1,.008.218L11.8,4.565a.5.5,0,0,1-.246.286.91.91,0,0,1-.448.113H4l.166.662H11.3a.587.587,0,0,1,.333.1.267.267,0,0,1,0,.468.587.587,0,0,1-.333.1H3.767a.6.6,0,0,1-.3-.077.329.329,0,0,1-.161-.2L1.96.662H.471a.587.587,0,0,1-.333-.1A.292.292,0,0,1,0,.331.292.292,0,0,1,.138.1.587.587,0,0,1,.471,0H2.355a.6.6,0,0,1,.3.077.329.329,0,0,1,.161.2L3,.993h8.958a.96.96,0,0,1,.3.048.724.724,0,0,1,.244.134Z" transform="translate(0.942 1.324)" fill="#fff"/>
</svg>
